HIERARCHY
ROOT Pelvis
{
	OFFSET 0.000000 0.000000 0.000000
	CHANNELS 6 Xposition Yposition Zposition Xrotation Yrotation Zrotation
	JOINT LeftUpLeg_virtual
	{
		OFFSET 0.000000 0.000000 0.000000
		CHANNELS 3 Xrotation Yrotation Zrotation
		JOINT LeftUpLeg
		{
			OFFSET 18.735201 -5.666702 -4.541200
			CHANNELS 3 Xrotation Yrotation Zrotation
			JOINT LeftLeg
			{
				OFFSET -0.021200 -31.938179 0.493100
				CHANNELS 3 Xrotation Yrotation Zrotation
				JOINT LeftFoot
				{
					OFFSET 0.021200 -31.938179 -4.336299
					CHANNELS 3 Xrotation Yrotation Zrotation
					JOINT LeftToeBase
					{
						OFFSET 0.943001 -26.722000 15.023500
						CHANNELS 3 Xrotation Yrotation Zrotation
						End Site
						{
							OFFSET 0 0 0
						}
					}
				}
			}
		}
	}
	JOINT RightUpLeg_virtual
	{
		OFFSET 0.000000 0.000000 0.000000
		CHANNELS 3 Xrotation Yrotation Zrotation
		JOINT RightUpLeg
		{
			OFFSET -18.735201 -5.666702 -4.541200
			CHANNELS 3 Xrotation Yrotation Zrotation
			JOINT RightLeg
			{
				OFFSET 0.018946 -31.938133 0.493100
				CHANNELS 3 Xrotation Yrotation Zrotation
				JOINT RightFoot
				{
					OFFSET -0.018946 -31.938126 -4.336299
					CHANNELS 3 Xrotation Yrotation Zrotation
					JOINT RightToeBase
					{
						OFFSET -0.943001 -26.722004 15.023500
						CHANNELS 3 Xrotation Yrotation Zrotation
						End Site
						{
							OFFSET 0 0 0
						}
					}
				}
			}
		}
	}
	JOINT Hips_virtual
	{
		OFFSET 0.000000 0.000000 0.000000
		CHANNELS 3 Xrotation Yrotation Zrotation
		JOINT Hips
		{
			OFFSET -0.000000 -0.000000 -0.000000
			CHANNELS 3 Xrotation Yrotation Zrotation
			JOINT Spine
			{
				OFFSET 0.000000 10.199997 -0.299500
				CHANNELS 3 Xrotation Yrotation Zrotation
				JOINT Spine1
				{
					OFFSET 0.000000 11.900002 -1.516600
					CHANNELS 3 Xrotation Yrotation Zrotation
					JOINT Spine2
					{
						OFFSET 0.000000 13.600006 -2.842500
						CHANNELS 3 Xrotation Yrotation Zrotation
						JOINT Neck_virtual
						{
							OFFSET 0.000000 0.000000 0.000000
							CHANNELS 3 Xrotation Yrotation Zrotation
							JOINT Neck
							{
								OFFSET 0.000000 9.624100 -2.890100
								CHANNELS 3 Xrotation Yrotation Zrotation
								JOINT Head
								{
									OFFSET 0.000000 14.068802 -1.351900
									CHANNELS 3 Xrotation Yrotation Zrotation
									End Site
									{
										OFFSET 0 0 0
									}
								}
							}
						}
						JOINT LeftShoulder_virtual
						{
							OFFSET 0.000000 0.000000 0.000000
							CHANNELS 3 Xrotation Yrotation Zrotation
							JOINT LeftShoulder
							{
								OFFSET 15.263000 10.923401 -0.547700
								CHANNELS 3 Xrotation Yrotation Zrotation
								JOINT LeftArm
								{
									OFFSET 25.438599 -2.830597 -13.032500
									CHANNELS 3 Xrotation Yrotation Zrotation
									JOINT LeftForeArm
									{
										OFFSET 29.960503 0.000000 0.000000
										CHANNELS 3 Xrotation Yrotation Zrotation
										JOINT LeftHand
										{
											OFFSET 27.849251 0.000000 0.000000
											CHANNELS 3 Xrotation Yrotation Zrotation
											End Site
											{
												OFFSET 0 0 0
											}
										}
									}
								}
							}
						}
						JOINT RightShoulder_virtual
						{
							OFFSET 0.000000 0.000000 0.000000
							CHANNELS 3 Xrotation Yrotation Zrotation
							JOINT RightShoulder
							{
								OFFSET -15.263000 10.923401 -0.547700
								CHANNELS 3 Xrotation Yrotation Zrotation
								JOINT RightArm
								{
									OFFSET -25.438599 -2.830597 -13.032500
									CHANNELS 3 Xrotation Yrotation Zrotation
									JOINT RightForeArm
									{
										OFFSET -29.960503 0.000000 0.000000
										CHANNELS 3 Xrotation Yrotation Zrotation
										JOINT RightHand
										{
											OFFSET -27.849251 0.000000 0.000000
											CHANNELS 3 Xrotation Yrotation Zrotation
											End Site
											{
												OFFSET 0 0 0
											}
										}
									}
								}
							}
						}
					}
				}
			}
		}
	}
}
MOTION
Frames: 10
Frame Time: 0.03333333
-3.525738 78.410332 3.056772 0.000000 0.000000 0.000000 11.660377 -49.374136 11.268315 -69.006897 20.606650 47.788190 51.256468 -22.124395 3.397165 2.961051 1.488315 -15.125445 0.000000 0.000000 0.000000 11.660377 -49.374136 11.268315 -33.116251 3.851135 -30.939869 58.819151 4.953935 -6.674912 -30.772393 -6.442725 30.151938 0.000000 0.000000 0.000000 11.660377 -49.374136 11.268315 0.000000 0.000002 0.000000 10.972559 2.720500 -2.032938 6.100705 5.566548 -4.284689 0.000000 0.000000 0.000000 -5.786909 6.328136 -3.046183 0.458841 1.873408 -0.022577 0.000000 0.000000 0.000000 -5.786909 6.328136 -3.046183 -1.875342 -16.181669 -2.870473 -10.644683 2.164650 -45.510636 -22.862368 -25.786227 -15.871616 0.000000 0.000000 0.000000 -5.786909 6.328136 -3.046183 -5.074636 24.343810 1.482712 6.642381 -34.733821 57.610405 -21.031983 44.833795 19.961658 0.000000 0.000000 0.000000 
-3.025976 78.538094 3.766470 0.000000 0.000000 0.000000 11.445565 -49.974367 11.072099 -68.847747 20.655684 47.946152 52.807860 -21.716088 3.188092 1.563162 1.595299 -14.249043 0.000000 0.000000 0.000000 11.445565 -49.974367 11.072099 -32.374953 4.000344 -31.185206 57.155354 5.060932 -6.989018 -29.343124 -6.896892 31.028265 0.000000 0.000000 0.000000 11.445565 -49.974367 11.072099 0.000000 0.000002 0.000000 10.936433 2.701844 -1.997418 6.124977 5.554789 -4.185740 0.000000 0.000000 0.000000 -5.749227 6.252874 -2.945708 0.493023 1.850768 0.088267 0.000000 0.000000 0.000000 -5.749227 6.252874 -2.945708 -1.890581 -15.766093 -3.028445 -10.843712 2.172864 -45.626978 -22.239277 -25.278190 -15.651638 0.000000 0.000000 0.000000 -5.749227 6.252874 -2.945708 -5.114991 24.192846 1.600718 7.019138 -34.769399 57.282850 -21.780874 43.486988 20.030042 0.000000 0.000000 0.000000 
-2.410760 78.731117 4.468023 0.000000 0.000000 0.000000 11.260006 -50.745143 10.924911 -68.546242 20.862844 48.084310 54.115172 -21.271497 2.924038 0.222560 1.752764 -13.366602 0.000000 0.000000 0.000000 11.260006 -50.745143 10.924911 -31.717298 4.174200 -31.474543 55.247361 5.217490 -7.255336 -27.757798 -7.160118 31.899425 0.000000 0.000000 0.000000 11.260006 -50.745143 10.924911 0.000000 -0.000003 0.000000 10.838917 2.693068 -1.956557 6.211053 5.531381 -4.085915 0.000000 0.000000 0.000000 -5.634573 6.080640 -2.847561 0.511962 1.796267 0.223597 0.000000 0.000000 0.000000 -5.634573 6.080640 -2.847561 -1.898938 -15.838097 -3.026465 -10.916589 3.036743 -45.852706 -21.654532 -24.915506 -15.679254 0.000000 0.000000 0.000000 -5.634573 6.080640 -2.847561 -5.162242 24.117342 1.733595 7.217163 -34.742905 57.034808 -22.411831 42.270087 20.016544 0.000000 0.000000 0.000000 
-1.706688 78.957909 5.242659 0.000000 0.000000 0.000000 11.158419 -51.739697 10.845805 -68.144729 21.148190 48.211792 55.490670 -20.720226 2.644317 -1.302885 2.006287 -12.445375 0.000000 0.000000 0.000000 11.158419 -51.739697 10.845805 -31.100030 4.344846 -31.921446 52.945031 5.513064 -7.408513 -26.003317 -7.230014 32.805262 0.000000 0.000000 0.000000 11.158419 -51.739697 10.845805 0.000000 0.000002 0.000000 10.684124 2.673843 -1.902799 6.304674 5.446446 -3.965666 0.000000 0.000000 0.000000 -5.493484 5.769523 -2.734773 0.530998 1.718741 0.375736 0.000000 0.000000 0.000000 -5.493484 5.769523 -2.734773 -1.912180 -15.416613 -3.171544 -11.148254 3.692016 -46.007522 -20.985189 -24.405055 -15.663032 0.000000 0.000000 0.000000 -5.493484 5.769523 -2.734773 -5.215421 24.184385 1.892622 6.918580 -34.742181 56.575287 -22.804868 40.833518 19.736820 0.000000 0.000000 0.000000 
-0.954939 79.193245 5.959734 0.000000 0.000000 0.000000 11.107312 -52.733254 10.813409 -67.735355 21.496958 48.269592 56.639351 -20.108318 2.344856 -2.678945 2.218464 -11.559794 0.000000 0.000000 0.000000 11.107312 -52.733254 10.813409 -30.525570 4.501983 -32.399976 50.606661 5.839647 -7.458006 -24.391570 -7.302306 33.615920 0.000000 0.000000 0.000000 11.107312 -52.733254 10.813409 0.000000 -0.000002 0.000000 10.477592 2.649085 -1.831470 6.431330 5.341321 -3.845163 0.000000 0.000000 0.000000 -5.301524 5.369800 -2.622325 0.541513 1.623436 0.536506 0.000000 0.000000 0.000000 -5.301524 5.369800 -2.622325 -1.914487 -15.246487 -3.208160 -11.410811 4.730156 -46.239247 -20.337925 -23.776865 -15.687859 0.000000 0.000000 0.000000 -5.301524 5.369800 -2.622325 -5.246645 23.749256 2.050736 6.457520 -34.285398 56.086057 -23.251156 39.750403 19.622515 0.000000 0.000000 0.000000 
-0.167727 79.393776 6.564522 0.000000 0.000000 0.000000 11.191512 -53.815959 10.913582 -67.391639 21.858960 48.373982 57.647179 -19.472306 1.986044 -3.928648 2.436163 -10.725815 0.000000 0.000000 0.000000 11.191512 -53.815959 10.913582 -30.211327 4.710370 -33.147659 48.026789 6.539944 -7.381734 -22.252878 -7.229187 35.021819 0.000000 0.000000 0.000000 11.191512 -53.815959 10.913582 0.000000 0.000000 0.000000 10.213867 2.621633 -1.752849 6.572004 5.219578 -3.718904 0.000000 0.000000 0.000000 -5.076621 4.889337 -2.505319 0.549595 1.511842 0.698863 0.000000 0.000000 0.000000 -5.076621 4.889337 -2.505319 -1.914361 -15.192412 -3.199653 -11.665609 6.112172 -46.489273 -19.715092 -23.164450 -15.839103 0.000000 0.000000 0.000000 -5.076621 4.889337 -2.505319 -5.297481 23.560497 2.223738 6.035463 -34.040351 55.710400 -23.725248 39.021161 19.652636 0.000000 0.000000 0.000000 
0.625082 79.552544 7.061289 0.000000 0.000000 0.000000 11.413877 -54.967703 11.136646 -67.152576 22.198077 48.563851 58.518062 -18.834844 1.569390 -5.018573 2.637377 -9.955882 0.000000 0.000000 0.000000 11.413877 -54.967703 11.136646 -30.086580 4.884495 -34.313303 44.839789 7.773396 -7.068544 -19.206866 -6.893342 37.454001 0.000000 0.000000 0.000000 11.413877 -54.967703 11.136646 0.000000 -0.000001 0.000000 9.886286 2.588079 -1.660637 6.717393 5.085063 -3.587320 0.000000 0.000000 0.000000 -4.826094 4.336930 -2.382764 0.563125 1.385144 0.860539 0.000000 0.000000 0.000000 -4.826094 4.336930 -2.382764 -1.928226 -15.208483 -3.284729 -12.000021 7.722145 -46.629790 -18.981161 -22.555445 -16.005997 0.000000 0.000000 0.000000 -4.826094 4.336930 -2.382764 -5.338911 23.478681 2.322142 5.725534 -33.787665 55.525869 -24.184744 38.525614 19.750272 0.000000 0.000000 0.000000 
1.432977 79.698318 7.494623 0.000000 0.000000 0.000000 11.753839 -56.192882 11.454162 -66.970503 22.536527 48.848372 59.277989 -18.201650 1.079451 -6.018238 2.823928 -9.212688 0.000000 0.000000 0.000000 11.753839 -56.192882 11.454162 -30.066906 4.845245 -35.536317 41.303397 9.017931 -6.589524 -16.165593 -6.289718 39.875187 0.000000 0.000000 0.000000 11.753839 -56.192882 11.454162 0.000000 0.000001 0.000000 9.513956 2.550873 -1.554410 6.875546 4.939511 -3.463707 0.000000 0.000000 0.000000 -4.542924 3.724274 -2.269191 0.574708 1.245448 1.026159 0.000000 0.000000 0.000000 -4.542924 3.724274 -2.269191 -1.899512 -15.086119 -3.248109 -12.412956 9.245835 -46.879680 -18.215694 -21.747148 -16.101362 0.000000 0.000000 0.000000 -4.542924 3.724274 -2.269191 -5.372655 23.450905 2.385362 5.477896 -33.555944 55.487193 -24.651379 38.314561 19.966255 0.000000 0.000000 0.000000 
2.294732 79.867119 7.901917 0.000000 0.000000 0.000000 12.172948 -57.491451 11.857275 -66.818723 22.997302 49.254413 59.899926 -17.622035 0.442490 -6.957832 2.956644 -8.366031 0.000000 0.000000 0.000000 12.172948 -57.491451 11.857275 -30.234567 4.532171 -36.473586 38.100776 9.938580 -6.182192 -14.276637 -5.650397 41.123097 0.000000 0.000000 0.000000 12.172948 -57.491451 11.857275 0.000000 0.000001 0.000000 9.121941 2.510600 -1.445600 7.057561 4.776575 -3.360241 0.000000 0.000000 0.000000 -4.219237 3.057080 -2.179146 0.575552 1.095484 1.200396 0.000000 0.000000 0.000000 -4.219237 3.057080 -2.179146 -1.861198 -14.942407 -3.086448 -12.866412 10.787301 -47.189446 -17.595959 -20.735741 -16.226702 0.000000 0.000000 0.000000 -4.219237 3.057080 -2.179146 -5.379708 23.438342 2.436303 5.162477 -33.374043 55.550291 -25.106655 38.363130 20.295395 0.000000 0.000000 0.000000 
3.199399 80.089188 8.315506 0.000000 0.000000 0.000000 12.602185 -58.803680 12.280804 -66.682741 23.623504 49.784600 60.269289 -17.107848 -0.340187 -7.757431 2.967151 -7.408623 0.000000 0.000000 0.000000 12.602185 -58.803680 12.280804 -30.495309 3.904679 -37.261018 35.072960 10.883677 -5.790461 -13.522023 -5.091471 41.473568 0.000000 0.000000 0.000000 12.602185 -58.803680 12.280804 0.000000 0.000003 -0.000001 8.712160 2.462441 -1.330262 7.262416 4.582238 -3.276687 0.000000 0.000000 0.000000 -3.856220 2.328543 -2.111070 0.578093 0.938605 1.378789 0.000000 0.000000 0.000000 -3.856220 2.328543 -2.111070 -1.849619 -14.841653 -2.923986 -13.168757 12.497382 -47.385312 -17.221120 -19.898458 -16.652853 0.000000 0.000000 0.000000 -3.856220 2.328543 -2.111070 -5.376781 23.439871 2.509301 4.710070 -33.208417 55.653047 -25.448583 38.486142 20.592332 0.000000 0.000000 0.000000 
